# xmcd CD database file
# 
# Track frame offsets:
# 	150
# 	16338
# 	33438
# 	48668
# 	62873
# 	81730
# 	97156
# 	115994
# 
# Disc length: 1834 seconds
# 
# Submitted via: Nero 5.5.2.4
# 
# Revision: 0
# Processed by: cddbd v1.4PL0 Copyright (c) Steve Scherf et al.
#
DISCID=71072808
DTITLE=The Bibbits - Water Daughter
DYEAR=1900
DGENRE=
TTITLE0=Sun Up
TTITLE1=One Word
TTITLE2=Water Daughter
TTITLE3=You'll Find
TTITLE4=Souls at Ease
TTITLE5=I relied on You
TTITLE6=Little Lucy
TTITLE7=The Maker
EXTD=
EXTT0=
EXTT1=
EXTT2=
EXTT3=
EXTT4=
EXTT5=
EXTT6=
EXTT7=
PLAYORDER=
